{"title":"Green Street Hooligans 2 (2009) DVDr Nl Subs Nlt Release","uid":4843913,"size":947169114,"categoryP":"video","categoryS":"movies","magnet":"?xt=urn:btih:d54f4bba884e137e3b094453caea229eaa594752&amp;dn=Green+Street+Hooligans+2+%282009%29+DVDr+Nl+Subs+Nlt+Release&amp;tr=udp%3A%2F%2Ftracker.openbittorrent.com%3A80&amp;tr=udp%3A%2F%2Fopen.demonii.com%3A1337&amp;tr=udp%3A%2F%2Ftracker.coppersurfer.tk%3A6969&amp;tr=udp%3A%2F%2Fexodus.desync.com%3A6969","seeders":1,"leechers":0,"uploader":"zeroyuy","files":-1,"time":1239609916,"description":"Brought to you By Nlt Release @\n &lt;a href=&quot;\nhttp://nlt.ons-forum.nl&quot; rel=&quot;nofollow&quot; target=&quot;_NEW&quot;&gt;\nhttp://nlt.ons-forum.nl&lt;/a&gt;\n\n\n &lt;a href=&quot;\nhttp://www.moviemeter.nl/film/55528&quot; rel=&quot;nofollow&quot; target=&quot;_NEW&quot;&gt;\nhttp://www.moviemeter.nl/film/55528&lt;/a&gt;\n\nVerenigde Staten\nDrama\n94 minuten\n\ngeregisseerd door Jesse V. Johnson\nmet Ross McCall, Marina Sirtis en Timothy V. Murphy\n\nNa de uit de hand gelopen rel met fatale afloop tussen de Hooligans van West Ham United en Millwall komen een groot deel van beide supporterskernen in de gevangenis terecht. Tussen de gevangenismuren zijn de aanhangers van Millwall in de meerderheid en die van West Ham worden dan ook constant aangevallen. Ook in de gevangenis wordt het voetbal fanatiek gevolgd en er worden zelfs wedstrijden gespeeld. Winst of verlies maakt het verschil tussen een beloning of een straf. Wanneer door overbevolking enkele gelukkigen kans maken op vervroegde vrijlating staan de hooligans van West Ham en Millwall weer tegenover elkaar. Deze keer echter op een voetbalveld. De inzet is hoog als een doelpunt je vrijheid kan betekenen.\n\nVideo Info:\n\nGeneral\nFormat                           : AVI\nFormat/Info                      : Audio Video Interleave\nFile size                        : 903 MiB\nDuration                         : 1h 34mn\nOverall bit rate                 : 1 341 Kbps\nWriting application              : Lavf51.12.1\n\nVideo\nFormat                           : xvid\nCodec ID                         : xvid\nDuration                         : 1h 34mn\nBit rate                         : 1 201 Kbps\nWidth                            : 720 pixels\nHeight                           : 480 pixels\nDisplay aspect ratio             : 1.500\nFrame rate                       : 23.976 fps\nStandard                         : NTSC\nResolution                       : 24 bits\nBits/(Pixel*Frame)               : 0.145\nStream size                      : 809 MiB (90%)\n\nAudio\nFormat                           : MPEG Audio\nFormat version                   : Version 1\nFormat profile                   : Layer 3\nCodec ID                         : 55\nCodec ID/Hint                    : MP3\nDuration                         : 1h 34mn\nBit rate mode                    : Constant\nBit rate                         : 128 Kbps\nChannel(s)                       : 2 channels\nSampling rate                    : 48.0 KHz\nResolution                       : 16 bits\nStream size                      : 86.2 MiB (10%)\nAlignment                        : Aligned on interleaves\nInterleave, duration             : 24 ms (0.58 video frame)\nInterleave, preload duration     : 24 ms\n","torrent":{"xt":"urn:btih:d54f4bba884e137e3b094453caea229eaa594752","amp;dn":"Green+Street+Hooligans+2+%282009%29+DVDr+Nl+Subs+Nlt+Release","amp;tr":["udp%3A%2F%2Ftracker.openbittorrent.com%3A80","udp%3A%2F%2Fopen.demonii.com%3A1337","udp%3A%2F%2Ftracker.coppersurfer.tk%3A6969","udp%3A%2F%2Fexodus.desync.com%3A6969"],"infoHash":"d54f4bba884e137e3b094453caea229eaa594752","infoHashBuffer":{"type":"Buffer","data":[213,79,75,186,136,78,19,126,59,9,68,83,202,234,34,158,170,89,71,82]},"announce":[],"urlList":[]}}